<?xml version="1.0" encoding="iso-8859-1"?>
<!-- Uploaded to: SVG Repo, www.svgrepo.com, Generator: SVG Repo Mixer Tools -->
<svg fill="#000000" height="800px" width="800px" version="1.1" id="Layer_1" xmlns="http://www.w3.org/2000/svg" xmlns:xlink="http://www.w3.org/1999/xlink" 
	 viewBox="0 0 512 512" xml:space="preserve">
<g>
	<g>
		<path d="M208.879,53.682c-1.334-3.402-3.23-6.434-5.687-9.101c-2.459-2.668-5.414-4.816-8.868-6.436
			c-3.452-1.62-7.296-2.433-11.533-2.433c-4.133,0-7.94,0.772-11.416,2.317c-3.48,1.543-6.488,3.61-9.025,6.198
			c-2.537,2.587-4.511,5.584-5.924,8.983c-1.412,3.402-2.119,6.932-2.119,10.594c0,3.61,0.68,7.113,2.041,10.513
			c1.361,3.402,3.268,6.424,5.727,9.064c2.459,2.643,5.414,4.773,8.866,6.396c3.455,1.621,7.297,2.431,11.536,2.431
			c4.13,0,7.937-0.785,11.416-2.352c3.479-1.567,6.474-3.649,8.983-6.238c2.513-2.588,4.474-5.572,5.887-8.946
			c1.412-3.374,2.118-6.892,2.118-10.554C210.88,60.561,210.213,57.084,208.879,53.682z M194.6,69.217
			c-0.496,1.779-1.254,3.362-2.276,4.747c-1.021,1.388-2.341,2.51-3.962,3.375c-1.623,0.86-3.53,1.294-5.727,1.294
			c-2.199,0-4.095-0.42-5.689-1.259c-1.597-0.835-2.917-1.933-3.962-3.292c-1.048-1.36-1.832-2.916-2.355-4.668
			c-0.522-1.754-0.784-3.573-0.784-5.454c0-1.829,0.247-3.621,0.745-5.377c0.496-1.749,1.267-3.321,2.314-4.708
			c1.045-1.385,2.365-2.497,3.964-3.335c1.593-0.838,3.49-1.254,5.687-1.254c2.145,0,4.015,0.405,5.611,1.215
			c1.594,0.811,2.93,1.883,4.001,3.217c1.071,1.334,1.87,2.877,2.394,4.631s0.785,3.57,0.785,5.454
			C195.345,65.634,195.096,67.438,194.6,69.217z"/>
	</g>
</g>
<g>
	<g>
		<path d="M261.338,68.041c-0.785-1.83-1.91-3.386-3.375-4.669c-1.464-1.281-3.23-2.394-5.296-3.335
			c-2.068-0.941-4.382-1.805-6.945-2.588c-1.623-0.522-3.073-0.969-4.355-1.334c-1.283-0.364-2.368-0.747-3.257-1.139
			c-0.89-0.391-1.57-0.823-2.041-1.293c-0.472-0.472-0.705-1.074-0.705-1.808c0-0.993,0.404-1.697,1.215-2.118
			c0.811-0.418,1.896-0.626,3.257-0.626c1.674,0,3.386,0.274,5.14,0.823c1.751,0.549,3.335,1.136,4.746,1.765
			c1.675,0.734,3.295,1.57,4.865,2.512l6.592-12.634c-1.256-0.626-2.668-1.294-4.237-2.001c-1.57-0.705-3.257-1.358-5.062-1.961
			c-1.805-0.603-3.675-1.099-5.611-1.492c-1.934-0.393-3.922-0.587-5.962-0.587c-2.773,0-5.403,0.407-7.886,1.215
			c-2.486,0.812-4.696,2.001-6.63,3.571c-1.936,1.57-3.467,3.53-4.591,5.885c-1.126,2.355-1.688,5.076-1.688,8.161
			c0,2.039,0.274,3.844,0.825,5.416c0.549,1.569,1.398,2.967,2.55,4.197c1.151,1.23,2.614,2.328,4.395,3.295
			c1.776,0.969,3.895,1.869,6.356,2.706c1.674,0.577,3.255,1.074,4.746,1.49c1.492,0.421,2.813,0.838,3.964,1.256
			c1.151,0.42,2.052,0.902,2.707,1.451c0.653,0.552,0.98,1.217,0.98,2.002c0,0.734-0.327,1.324-0.98,1.765
			c-0.654,0.445-1.818,0.668-3.492,0.668c-2.197,0-4.356-0.317-6.474-0.942c-2.119-0.627-4.016-1.334-5.689-2.118
			c-1.988-0.89-3.898-1.91-5.727-3.061l-6.592,13.417c1.674,0.994,3.492,1.883,5.453,2.668c1.963,0.785,4.002,1.465,6.121,2.041
			c2.119,0.575,4.248,1.02,6.394,1.334c2.146,0.316,4.238,0.472,6.278,0.472c2.563,0,5.113-0.303,7.652-0.903
			c2.539-0.604,4.814-1.583,6.828-2.945c2.012-1.358,3.635-3.177,4.865-5.454c1.229-2.277,1.843-5.086,1.843-8.435
			C262.514,72.094,262.123,69.871,261.338,68.041z"/>
	</g>
</g>
<g>
	<g>
		<path d="M490.667,433.778h-7.625c0.333-2.324,0.513-4.696,0.513-7.111c0-22.548-14.996-41.583-35.556-47.704V92.444h-30.595
			V78.399h-25.266V36.028h-15.302v56.417h-11.062V78.399h-24.402v-8.789h20.244V57.21h-20.244v-7.848h23.696V36.026H326.07v56.418
			h-25.502V49.364h16.008V36.028h-47.393v13.336h16.085v43.081H256h-14.672h-97.456V36.028H128.57v20.555h-18.674V36.028H94.595
			v56.417H64v286.518c-20.56,6.121-35.556,25.156-35.556,47.704c0,2.415,0.181,4.787,0.513,7.111h-7.625
			C9.552,433.778,0,443.329,0,455.111s9.552,21.333,21.333,21.333h149.333v-85.333h170.667v85.333h149.333
			c11.782,0,21.333-9.552,21.333-21.333S502.448,433.778,490.667,433.778z M109.897,69.922h18.675v22.522h-18.675V69.922z
			 M149.333,348.444h-42.667v-42.667h42.667V348.444z M149.333,263.111h-42.667v-42.667h42.667V263.111z M149.333,177.778h-42.667
			v-42.667h42.667V177.778z M234.667,348.444H192v-42.667h42.667V348.444z M234.667,263.111H192v-42.667h42.667V263.111z
			 M234.667,177.778H192v-42.667h42.667V177.778z M320,348.444h-42.667v-42.667H320V348.444z M320,263.111h-42.667v-42.667H320
			V263.111z M320,177.778h-42.667v-42.667H320V177.778z M405.333,348.444h-42.667v-42.667h42.667V348.444z M405.333,263.111h-42.667
			v-42.667h42.667V263.111z M405.333,177.778h-42.667v-42.667h42.667V177.778z"/>
	</g>
</g>
</svg>